<svg xmlns="http://www.w3.org/2000/svg" width="64" height="64" viewBox="0 0 64 64"><g transform="translate(-35.277 -1696.17)"><ellipse cx="68.713" cy="1749.805" fill="#ececec" rx="23.155" ry="4.478"/><path fill="#ffcc80" fill-rule="evenodd" stroke="#000" d="m 77.949131,1726.4719 5.820267,-4.0068 -1.012218,-2.8281 8.477347,-4.4782 4.301952,7.0707 -8.73041,0.1178 1.012218,3.1818 -11.007905,2.5926 z"/><path fill="#ffcc80" stroke="#000" stroke-linecap="round" stroke-linejoin="round" d="m 54.795835,1709.6508 a 9.6038064,7.6398722 42.394209 0 0 2.491329,7.7259 9.6038064,7.6398722 42.394209 0 0 3.211587,2.6218 10.468327,8.1193451 0 0 0 -1.732796,4.4592 10.468327,8.1193451 0 0 0 10.469845,8.1212 10.468327,8.1193451 0 0 0 10.466366,-8.1212 10.468327,8.1193451 0 0 0 -1.757152,-4.4917 7.6398722,9.6038064 47.605791 0 0 2.734891,-2.3397 7.6398722,9.6038064 47.605791 0 0 2.491333,-7.726 7.6398722,9.6038064 47.605791 0 0 -7.129515,3.9343 7.6398722,9.6038064 47.605791 0 0 -2.014638,3.4157 10.468327,8.1193451 0 0 0 -4.791285,-0.9106 10.468327,8.1193451 0 0 0 -5.163591,1.0662 9.6038064,7.6398722 42.394209 0 0 -2.146858,-3.8209 9.6038064,7.6398722 42.394209 0 0 -7.129516,-3.9342 z"/><path d="m 82.341982,1710.8435 c 0.676813,1.881 -1.085242,4.6684 -1.085242,4.6684 l -3.173269,-2.7009 c 0,0 2.423895,-1.9554 4.258511,-1.9675 z"/><path fill="#333" d="m -54.773438,1037.9247 c -2.226562,1.4375 -2.838171,5.7156 -2.838171,5.7156 l 5.33734,-0.3545 c 0,0 -0.725731,-3.9236 -2.499169,-5.3611 z" transform="matrix(.88144 -.65592 .70425 .82095 -627.884 821.639)"/><ellipse cx="-1165.101" cy="1356.338" rx="1.727" ry="1.716" transform="matrix(.76075 -.64905 .70121 .71295 0 0)"/><ellipse cx="-1164.525" cy="1355.766" fill="#fff" rx=".576" ry=".572" transform="matrix(.76075 -.64905 .70121 .71295 0 0)"/><ellipse cx="-1207.99" cy="1319.224" rx="1.722" ry="1.721" transform="matrix(.73498 -.67809 .72854 .685 0 0)"/><circle cx="-1207.416" cy="1318.65" r=".574" fill="#fff" transform="matrix(.73498 -.67809 .72854 .685 0 0)"/><g transform="matrix(1.7815 0 0 1.3434 73.717 305.956)"><ellipse cx="-2.511" cy="1058.688" rx="1.666" ry=".662"/><path style="line-height:normal;text-indent:0;text-align:start;text-decoration-line:none;text-decoration-style:solid;text-decoration-color:#000;text-transform:none;block-progression:tb;white-space:normal;isolation:auto;mix-blend-mode:normal;solid-color:#000;solid-opacity:1" d="m -4.4140625,1057.207 c -0.2848951,0.019 -0.5086681,0.2517 -0.5175781,0.5371 -0.035104,0.7439 0.5488822,1.3147 1.2714844,1.586 0.7226021,0.2713 1.5539484,0.2781 2.2851562,0.022 0.73120778,-0.2567 1.33203125,-0.8021 1.33203125,-1.5469 0.01183752,-0.7526 -1.12316565,-0.7526 -1.11132815,0 0,0.1031 -0.8221127,0.1227 -1.2784246,0.2829 -0.4563119,0.1601 0.4742424,0.1843 0.029497,0.017 -0.4447459,-0.167 -1.4239371,-0.2043 -1.4190407,-0.308 0.021392,-0.335 -0.256852,-0.6124 -0.5917969,-0.5899 z" color="#000" enable-background="accumulate" font-family="sans-serif" font-weight="400" overflow="visible"/><ellipse cx="-2.528" cy="1058.972" rx=".972" ry=".397"/></g><ellipse cx="473.377" cy="1574.411" fill="#ff2a2a" rx="2.173" ry="1.144" transform="matrix(.9087 .41745 -.23336 .9724 0 0)"/><ellipse cx="1994.135" cy="-1445.732" fill="#ff2a2a" rx="1.945" ry="1.481" transform="matrix(-.67545 .7374 -.9839 -.17869 0 0)"/><ellipse cx="69.142" cy="1725.524" rx="1.225" ry=".308"/><path fill="#ff2a2a" stroke="#000" stroke-linecap="round" d="m 45.950775,1705.3492 a 19.713744,18.296612 0.78394793 0 0 -4.249518,8.1401 19.713744,18.296612 0.78394793 0 0 6.292739,17.3985 l 10.0707,-10.6024 a 4.5533776,4.2272617 0 0 1 -0.53672,-0.828 4.5533776,4.2272617 0 0 1 2.307991,-5.585 4.5533776,4.2272617 0 0 1 4.159719,0.2237 l 10.167142,-10.5291 a 19.713744,18.296612 0.78394793 0 0 -19.345365,-3.7708 19.713744,18.296612 0.78394793 0 0 -8.866688,5.553 z"/><path fill="#f2f2f2" stroke="#000" stroke-linecap="round" d="m 91.861521,1731.4742 a 19.690645,18.318077 0 0 1 -9.891589,15.8887 19.690645,18.318077 0 0 1 -19.736694,-0.075 19.690645,18.318077 0 0 1 -9.752356,-15.963 l 19.689994,0.1489 z" transform="rotate(.079) skewX(-.013)"/><path fill="#fff" d="m 85.523561,1732.9214 a 15.324929,14.256673 0 0 1 -7.698473,12.3659 15.324929,14.256673 0 0 1 -15.360768,-0.058 15.324929,14.256673 0 0 1 -7.590111,-12.4238 l 15.324422,0.116 z" transform="rotate(.069) skewX(-.011)"/><ellipse cx="809.816" cy="1577.778" fill="#fff" stroke="#000" stroke-linecap="round" stroke-width="1.001" rx="4.501" ry="4.282" transform="matrix(.92483 .3804 -.4307 .9025 0 0)"/><ellipse cx="810.61" cy="1578.18" rx="1.5" ry="1.426" transform="matrix(.925 .37998 -.43113 .90229 0 0)"/><rect width="5.366" height="3.319" x="57.088" y="1729.935" fill="#ffcc80" stroke="#000" stroke-linecap="round" stroke-linejoin="round" ry="1.267"/><rect width="5.366" height="3.319" x="76.324" y="1729.602" fill="#ffcc80" stroke="#000" stroke-linecap="round" stroke-linejoin="round" ry="1.267"/><path fill="red" fill-rule="evenodd" d="m 88.042579,1717.7887 -0.450615,1.1953 1.892515,0.3842 -2.027678,2.1346 6.57865,-0.085 -3.10909,-5.1656 z"/></g></svg>